<?xml version="1.0" encoding="utf-8"?>
<!-- Generator: Adobe Illustrator 24.0.2, SVG Export Plug-In . SVG Version: 6.00 Build 0)  -->
<svg version="1.1" id="Layer_1" xmlns="http://www.w3.org/2000/svg" xmlns:xlink="http://www.w3.org/1999/xlink" x="0px" y="0px"
	 viewBox="0 0 400 400" style="enable-background:new 0 0 400 400;" xml:space="preserve">
<style type="text/css">
	.st0{fill:#CBCBCD;stroke:#000000;stroke-width:1.9912;stroke-miterlimit:10;}
	.st1{fill:none;stroke:#FFFFFF;stroke-width:4;stroke-miterlimit:10;}
</style>
<rect class="st0" width="400" height="400"/>
<line class="st1" x1="200" y1="-100" x2="200" y2="500"/>
<line class="st1" x1="147.9" y1="-95.4" x2="252.1" y2="495.4"/>
<line class="st1" x1="97.4" y1="-81.9" x2="302.6" y2="481.9"/>
<line class="st1" x1="50" y1="-59.8" x2="350" y2="459.8"/>
<line class="st1" x1="7.2" y1="-29.8" x2="392.8" y2="429.8"/>
<line class="st1" x1="-29.8" y1="7.2" x2="429.8" y2="392.8"/>
<line class="st1" x1="-59.8" y1="50" x2="459.8" y2="350"/>
<line class="st1" x1="-81.9" y1="97.4" x2="481.9" y2="302.6"/>
<line class="st1" x1="-95.4" y1="147.9" x2="495.4" y2="252.1"/>
<line class="st1" x1="-100" y1="200" x2="500" y2="200"/>
<line class="st1" x1="-95.4" y1="252.1" x2="495.4" y2="147.9"/>
<line class="st1" x1="-81.9" y1="302.6" x2="481.9" y2="97.4"/>
<line class="st1" x1="-59.8" y1="350" x2="459.8" y2="50"/>
<line class="st1" x1="-29.8" y1="392.8" x2="429.8" y2="7.2"/>
<line class="st1" x1="7.2" y1="429.8" x2="392.8" y2="-29.8"/>
<line class="st1" x1="50" y1="459.8" x2="350" y2="-59.8"/>
<line class="st1" x1="97.4" y1="481.9" x2="302.6" y2="-81.9"/>
<line class="st1" x1="147.9" y1="495.4" x2="252.1" y2="-95.4"/>
</svg>
