<?xml version="1.0" encoding="utf-8"?>
<!-- Generator: Adobe Illustrator 24.0.2, SVG Export Plug-In . SVG Version: 6.00 Build 0)  -->
<svg version="1.1" id="Layer_1" xmlns="http://www.w3.org/2000/svg" xmlns:xlink="http://www.w3.org/1999/xlink" x="0px" y="0px"
	 viewBox="0 0 400 400" style="enable-background:new 0 0 400 400;" xml:space="preserve">
<style type="text/css">
	.st0{fill:#CBCBCD;stroke:#000000;stroke-width:1.9912;stroke-miterlimit:10;}
	.st1{fill:none;stroke:#FFFFFF;stroke-width:4;stroke-miterlimit:10;}
</style>
<rect class="st0" width="400" height="400"/>
<line class="st1" x1="200" y1="-100" x2="200" y2="500"/>
<line class="st1" x1="168.6" y1="-98.4" x2="231.4" y2="498.4"/>
<line class="st1" x1="137.6" y1="-93.4" x2="262.4" y2="493.4"/>
<line class="st1" x1="107.3" y1="-85.3" x2="292.7" y2="485.3"/>
<line class="st1" x1="78" y1="-74.1" x2="322" y2="474.1"/>
<line class="st1" x1="50" y1="-59.8" x2="350" y2="459.8"/>
<line class="st1" x1="23.7" y1="-42.7" x2="376.3" y2="442.7"/>
<line class="st1" x1="-0.7" y1="-22.9" x2="400.7" y2="422.9"/>
<line class="st1" x1="-22.9" y1="-0.7" x2="422.9" y2="400.7"/>
<line class="st1" x1="-42.7" y1="23.7" x2="442.7" y2="376.3"/>
<line class="st1" x1="-59.8" y1="50" x2="459.8" y2="350"/>
<line class="st1" x1="-74.1" y1="78" x2="474.1" y2="322"/>
<line class="st1" x1="-85.3" y1="107.3" x2="485.3" y2="292.7"/>
<line class="st1" x1="-93.4" y1="137.6" x2="493.4" y2="262.4"/>
<line class="st1" x1="-98.4" y1="168.6" x2="498.4" y2="231.4"/>
<line class="st1" x1="-100" y1="200" x2="500" y2="200"/>
<line class="st1" x1="-98.4" y1="231.4" x2="498.4" y2="168.6"/>
<line class="st1" x1="-93.4" y1="262.4" x2="493.4" y2="137.6"/>
<line class="st1" x1="-85.3" y1="292.7" x2="485.3" y2="107.3"/>
<line class="st1" x1="-74.1" y1="322" x2="474.1" y2="78"/>
<line class="st1" x1="-59.8" y1="350" x2="459.8" y2="50"/>
<line class="st1" x1="-42.7" y1="376.3" x2="442.7" y2="23.7"/>
<line class="st1" x1="-22.9" y1="400.7" x2="422.9" y2="-0.7"/>
<line class="st1" x1="-0.7" y1="422.9" x2="400.7" y2="-22.9"/>
<line class="st1" x1="23.7" y1="442.7" x2="376.3" y2="-42.7"/>
<line class="st1" x1="50" y1="459.8" x2="350" y2="-59.8"/>
<line class="st1" x1="78" y1="474.1" x2="322" y2="-74.1"/>
<line class="st1" x1="107.3" y1="485.3" x2="292.7" y2="-85.3"/>
<line class="st1" x1="137.6" y1="493.4" x2="262.4" y2="-93.4"/>
<line class="st1" x1="168.6" y1="498.4" x2="231.4" y2="-98.4"/>
</svg>
