<?xml version="1.0" encoding="utf-8"?>
<!-- Generator: Adobe Illustrator 24.0.2, SVG Export Plug-In . SVG Version: 6.00 Build 0)  -->
<svg version="1.1" id="Layer_1" xmlns="http://www.w3.org/2000/svg" xmlns:xlink="http://www.w3.org/1999/xlink" x="0px" y="0px"
	 viewBox="0 0 400 400" style="enable-background:new 0 0 400 400;" xml:space="preserve">
<style type="text/css">
	.st0{fill:#CCCBCD;stroke:#000000;stroke-width:1.9912;stroke-miterlimit:10;}
	.st1{fill:none;stroke:#FFFFFF;stroke-width:4;stroke-linecap:round;stroke-miterlimit:10;}
</style>
<rect class="st0" width="400" height="400"/>
<line class="st1" x1="200" y1="-100" x2="200" y2="500"/>
<line class="st1" x1="176.5" y1="-99.1" x2="223.5" y2="499.1"/>
<line class="st1" x1="153.1" y1="-96.3" x2="246.9" y2="496.3"/>
<line class="st1" x1="130" y1="-91.7" x2="270" y2="491.7"/>
<line class="st1" x1="107.3" y1="-85.3" x2="292.7" y2="485.3"/>
<line class="st1" x1="85.2" y1="-77.2" x2="314.8" y2="477.2"/>
<line class="st1" x1="63.8" y1="-67.3" x2="336.2" y2="467.3"/>
<line class="st1" x1="43.3" y1="-55.8" x2="356.7" y2="455.8"/>
<line class="st1" x1="23.7" y1="-42.7" x2="376.3" y2="442.7"/>
<line class="st1" x1="5.2" y1="-28.1" x2="394.8" y2="428.1"/>
<line class="st1" x1="-12.1" y1="-12.1" x2="412.1" y2="412.1"/>
<line class="st1" x1="-28.1" y1="5.2" x2="428.1" y2="394.8"/>
<line class="st1" x1="-42.7" y1="23.7" x2="442.7" y2="376.3"/>
<line class="st1" x1="-55.8" y1="43.3" x2="455.8" y2="356.7"/>
<line class="st1" x1="-67.3" y1="63.8" x2="467.3" y2="336.2"/>
<line class="st1" x1="-77.2" y1="85.2" x2="477.2" y2="314.8"/>
<line class="st1" x1="-85.3" y1="107.3" x2="485.3" y2="292.7"/>
<line class="st1" x1="-91.7" y1="130" x2="491.7" y2="270"/>
<line class="st1" x1="-96.3" y1="153.1" x2="496.3" y2="246.9"/>
<line class="st1" x1="-99.1" y1="176.5" x2="499.1" y2="223.5"/>
<line class="st1" x1="-100" y1="200" x2="500" y2="200"/>
<line class="st1" x1="-99.1" y1="223.5" x2="499.1" y2="176.5"/>
<line class="st1" x1="-96.3" y1="246.9" x2="496.3" y2="153.1"/>
<line class="st1" x1="-91.7" y1="270" x2="491.7" y2="130"/>
<line class="st1" x1="-85.3" y1="292.7" x2="485.3" y2="107.3"/>
<line class="st1" x1="-77.2" y1="314.8" x2="477.2" y2="85.2"/>
<line class="st1" x1="-67.3" y1="336.2" x2="467.3" y2="63.8"/>
<line class="st1" x1="-55.8" y1="356.7" x2="455.8" y2="43.3"/>
<line class="st1" x1="-42.7" y1="376.3" x2="442.7" y2="23.7"/>
<line class="st1" x1="-28.1" y1="394.8" x2="428.1" y2="5.2"/>
<line class="st1" x1="-12.1" y1="412.1" x2="412.1" y2="-12.1"/>
<line class="st1" x1="5.2" y1="428.1" x2="394.8" y2="-28.1"/>
<line class="st1" x1="23.7" y1="442.7" x2="376.3" y2="-42.7"/>
<line class="st1" x1="43.3" y1="455.8" x2="356.7" y2="-55.8"/>
<line class="st1" x1="63.8" y1="467.3" x2="336.2" y2="-67.3"/>
<line class="st1" x1="85.2" y1="477.2" x2="314.8" y2="-77.2"/>
<line class="st1" x1="107.3" y1="485.3" x2="292.7" y2="-85.3"/>
<line class="st1" x1="130" y1="491.7" x2="270" y2="-91.7"/>
<line class="st1" x1="153.1" y1="496.3" x2="246.9" y2="-96.3"/>
<line class="st1" x1="176.5" y1="499.1" x2="223.5" y2="-99.1"/>
</svg>
